<svg xmlns="http://www.w3.org/2000/svg" width="582.994" height="582.994" viewBox="0 0 582.994 582.994">
  <g>
    <rect width="582.994" height="582.994" fill="#a2cd3a"/>
    <g>
      <g>
        <path d="M311.228,461.976v1.018h-1.383v4.2h-1.271v-4.2h-1.383v-1.018Z" fill="#fff"/>
        <path d="M317.705,461.976V467.2h-1.272v-3.13l-1.168,3.13H314.24l-1.176-3.137V467.2h-1.272v-5.219h1.5l1.465,3.613,1.451-3.613Z" fill="#fff"/>
      </g>
      <g>
        <rect x="297.942" y="192.675" width="11.477" height="14.632" fill="#fff"/>
        <rect x="297.942" y="220.759" width="11.477" height="14.634" fill="#fff"/>
        <path d="M291.5,111.292c-87.313,0-158.349,71.033-158.349,158.343A158.19,158.19,0,0,0,171.47,372.846l-.256.26,1.262.974.112.054a157.476,157.476,0,0,0,44.756,35.382l74.062,58.489,73.507-58.079A158.019,158.019,0,0,0,449.84,269.635C449.84,182.325,378.81,111.292,291.5,111.292Zm-.006,30.357A127.478,127.478,0,0,1,417.235,246.428c-3.968-.334-8.021-.5-12.076-.5a163.985,163.985,0,0,0-29.848,2.844V205.122H340.954V191.1l2.6,1.177,5.9-13.044-45.772-20.7-45.78,20.7,5.9,13.044,2.6-1.177v51.186c-40.063-11.4-77.2-13.119-95.924-13.119h-.408A127.475,127.475,0,0,1,291.5,141.649ZM208.612,341.115a100.919,100.919,0,0,1,15.243-3.358c-7.987,7.8-15.369,15.554-21.994,23.095a128.911,128.911,0,0,1-10.9-12.231A108.174,108.174,0,0,1,208.612,341.115ZM361,219.437v32.525a226.307,226.307,0,0,0-37.425,13.8,246.672,246.672,0,0,0-42.851-18.985V184.628l22.962-10.384,22.957,10.381v34.812Zm-52.939,54.221c-4.442,2.441-8.994,5.1-13.577,7.931-26.982-14.847-62.585-22.373-105.84-22.373-7.923,0-15.99.255-24.611.778a126.365,126.365,0,0,1,2.218-16.48c1.4-.023,2.935-.036,4.607-.036C194.514,243.478,254.736,246.447,308.056,273.658Zm-119.2-.129c37.073,0,68,5.746,91.964,17.087l-.449.293c-1.286.837-2.573,1.675-3.863,2.589-2.431,1.721-4.861,3.541-7.292,5.361l-.276.208c-11.458-3.158-28.1-7-43.618-7.821-2.654-.14-5.39-.211-8.129-.211a207.57,207.57,0,0,0-50.431,6.765,128.457,128.457,0,0,1-3.032-23.442C172.606,273.8,180.841,273.529,188.853,273.529Zm28.334,31.822c2.49,0,4.972.064,7.377.191a175.06,175.06,0,0,1,30.09,4.673c-4.873,3.972-9.7,8.077-14.385,12.232-.789-.017-1.576-.024-2.365-.024a114.643,114.643,0,0,0-33.473,5,126.371,126.371,0,0,0-21.744,9.39,127.7,127.7,0,0,1-12.037-25.235A192.95,192.95,0,0,1,217.187,305.351Zm67.595-.172c36.56-25.9,73.45-41.07,107.246-44.187-34.231,15.457-66.056,37.57-94.7,65.82-22.7,22.391-39.975,46.218-50.637,62.583a127.566,127.566,0,0,1-34.046-19.032A424.132,424.132,0,0,1,284.782,305.179ZM307.378,337c41.577-41,83.491-61.5,111.911-71.553.006.1.013.194.02.292.085,1.292.174,2.581.174,3.894,0,.284-.021.561-.041.84a.34.34,0,0,0,0,.045c-23.6,11.687-56.446,32.754-80.476,67.2a211.112,211.112,0,0,0-28.2,58.293,120.883,120.883,0,0,1-49.793-2.219C274.974,372.872,291.4,352.762,307.378,337Zm43.33,8.914c20.142-28.883,47.335-47.624,67.449-58.548-.165,1.077-.347,2.148-.529,3.221-11.36,9.994-26.3,26.423-33.79,48.452a114.756,114.756,0,0,0-5.172,24.131,128.149,128.149,0,0,1-51.6,29.281A194.615,194.615,0,0,1,350.708,345.918Z" fill="#fff"/>
      </g>
    </g>
  </g>
</svg>
